<?xml version="1.0" encoding="UTF-8" standalone="no"?>
<!-- Created with Inkscape (http://www.inkscape.org/) -->

<svg
   width="210mm"
   height="297mm"
   viewBox="0 0 210 297"
   version="1.1"
   id="svg1"
   xml:space="preserve"
   inkscape:version="1.4.3 (fcd0343856, 2026-01-01)"
   sodipodi:docname="logo.svg"
   xmlns:inkscape="http://www.inkscape.org/namespaces/inkscape"
   xmlns:sodipodi="http://sodipodi.sourceforge.net/DTD/sodipodi-0.dtd"
   xmlns="http://www.w3.org/2000/svg"
   xmlns:svg="http://www.w3.org/2000/svg"><sodipodi:namedview
     id="namedview1"
     pagecolor="#ffffff"
     bordercolor="#000000"
     borderopacity="0.25"
     inkscape:showpageshadow="2"
     inkscape:pageopacity="0.0"
     inkscape:pagecheckerboard="0"
     inkscape:deskcolor="#d1d1d1"
     inkscape:document-units="mm"
     inkscape:zoom="0.7180275"
     inkscape:cx="177.5698"
     inkscape:cy="463.77054"
     inkscape:window-width="1920"
     inkscape:window-height="1011"
     inkscape:window-x="0"
     inkscape:window-y="0"
     inkscape:window-maximized="1"
     inkscape:current-layer="svg1" /><defs
     id="defs1"><inkscape:path-effect
       effect="fillet_chamfer"
       id="path-effect2"
       is_visible="true"
       lpeversion="1"
       nodesatellites_param="F,0,0,1,0,0,0,1 @ F,0,0,1,0,0,0,1 @ F,0,0,1,0,0,0,1 @ F,0,0,1,0,0,0,1 @ F,0,0,1,0,0,0,1 @ F,0,0,1,0,0,0,1 @ F,0,0,1,0,0,0,1 @ F,0,0,1,0,0,0,1 @ F,0,0,1,0,0,0,1 @ F,0,0,1,0,0,0,1 @ F,0,0,1,0,0,0,1 @ F,0,0,1,0,0,0,1 @ F,0,0,1,0,0,0,1 @ F,0,0,1,0,0,0,1 @ F,0,0,1,0,0,0,1 @ F,0,0,1,0,0,0,1"
       radius="0"
       unit="px"
       method="auto"
       mode="F"
       chamfer_steps="1"
       flexible="false"
       use_knot_distance="true"
       apply_no_radius="true"
       apply_with_radius="true"
       only_selected="false"
       hide_knots="false" /><inkscape:path-effect
       effect="fillet_chamfer"
       id="path-effect1"
       is_visible="true"
       lpeversion="1"
       nodesatellites_param="F,0,0,1,0,22.786752,0,1 @ F,0,0,1,0,0,0,1 @ F,0,0,1,0,22.203763,0,1 @ F,0,0,1,0,0,0,1 @ F,0,0,1,0,20.721221,0,1 @ F,0,0,1,0,0,0,1"
       radius="0"
       unit="px"
       method="auto"
       mode="F"
       chamfer_steps="1"
       flexible="false"
       use_knot_distance="true"
       apply_no_radius="true"
       apply_with_radius="true"
       only_selected="false"
       hide_knots="false" /><inkscape:path-effect
       effect="fillet_chamfer"
       id="path-effect1-1"
       is_visible="true"
       lpeversion="1"
       nodesatellites_param="F,0,0,1,0,22.786752,0,1 @ F,0,0,1,0,0,0,1 @ F,0,0,1,0,22.203763,0,1 @ F,0,0,1,0,0,0,1 @ F,0,0,1,0,20.721221,0,1 @ F,0,0,1,0,0,0,1"
       radius="0"
       unit="px"
       method="auto"
       mode="F"
       chamfer_steps="1"
       flexible="false"
       use_knot_distance="true"
       apply_no_radius="true"
       apply_with_radius="true"
       only_selected="false"
       hide_knots="false" /><inkscape:path-effect
       effect="fillet_chamfer"
       id="path-effect1-1-2"
       is_visible="true"
       lpeversion="1"
       nodesatellites_param="F,0,0,1,0,22.786752,0,1 @ F,0,0,1,0,0,0,1 @ F,0,0,1,0,22.203763,0,1 @ F,0,0,1,0,0,0,1 @ F,0,0,1,0,20.721221,0,1 @ F,0,0,1,0,0,0,1"
       radius="0"
       unit="px"
       method="auto"
       mode="F"
       chamfer_steps="1"
       flexible="false"
       use_knot_distance="true"
       apply_no_radius="true"
       apply_with_radius="true"
       only_selected="false"
       hide_knots="false" /><inkscape:path-effect
       effect="fillet_chamfer"
       id="path-effect1-1-2-9"
       is_visible="true"
       lpeversion="1"
       nodesatellites_param="F,0,0,1,0,22.786752,0,1 @ F,0,0,1,0,0,0,1 @ F,0,0,1,0,22.203763,0,1 @ F,0,0,1,0,0,0,1 @ F,0,0,1,0,20.721221,0,1 @ F,0,0,1,0,0,0,1"
       radius="0"
       unit="px"
       method="auto"
       mode="F"
       chamfer_steps="1"
       flexible="false"
       use_knot_distance="true"
       apply_no_radius="true"
       apply_with_radius="true"
       only_selected="false"
       hide_knots="false" /></defs><path
     style="fill:#ffffff;fill-opacity:1;stroke:none;stroke-opacity:1;stroke-width:0.189999;stroke-linecap:round;stroke-linejoin:miter;stroke-dasharray:none;paint-order:fill markers stroke"
     d="m 74.324511,107.74123 c -0.82083,7.74677 -0.472538,16.14306 0.260559,24.75312 3.329903,13.00713 16.372419,11.8785 22.017251,5.4066 5.378059,1.94171 9.349569,-1.36785 8.207619,-6.18828 4.66263,-5.3438 3.75594,-10.00972 0.26056,-14.13533 5.3213,-17.48051 -11.469398,-20.508453 -15.633556,-16.74093 -5.86246,-5.823383 -14.641676,-2.625627 -15.112433,6.90482 z"
     id="path9"
     sodipodi:nodetypes="ccccccc" /><g
     inkscape:label="Layer 1"
     inkscape:groupmode="layer"
     id="layer1"><g
       id="g8"
       style="fill:#00003c;fill-opacity:1;stroke:none;stroke-opacity:1"
       transform="translate(68.475715,4.9141213)"><path
         style="fill:#00003c;fill-opacity:1;stroke:none;stroke-width:0.2;stroke-linecap:round;stroke-linejoin:miter;stroke-dasharray:none;stroke-opacity:1;paint-order:fill markers stroke"
         d="m -8.0773351,113.85647 0.06514,3.19975 c 2.9278443,0.29787 6.8135768,0.3762 8.92415238,-0.26056 0.73783862,3.37726 1.81918332,3.7934 2.94253192,5.054 2.8871848,3.23994 1.0766168,6.80151 -2.2753283,4.23864 0.3879282,3.72503 8.6472501,3.16163 4.7314969,-4.57628 1.2934971,0.43057 2.5301186,0.81213 4.0403042,0.22868 -2.6007489,-0.54463 -3.4728254,-1.9121 -4.2929606,-4.29364 2.4961872,-1.83258 5.6026146,-1.42624 6.5139796,1.69363 0.644993,-2.82207 -0.817837,-4.85055 -5.0157641,-5.27632 2.1216091,-2.02571 3.5766161,-4.1514 0.8468172,-6.90482 0.2999558,3.17765 -0.7491737,4.17935 -2.3450327,4.29923 -0.5652751,-1.15006 -0.088036,-2.29624 0.3742669,-3.52104 2.0012583,-5.30203 -5.59415988,-8.065116 -5.45517122,-2.79752 1.22003942,-2.89233 5.22495122,0.1122 2.06185832,4.62797 -0.7452222,1.06391 -1.6529255,2.33813 -2.25727772,4.62188 -3.11937928,0.76674 -6.10741828,0.73859 -8.85901278,-0.3336 z"
         id="path2"
         sodipodi:nodetypes="cccsccccccccscscc" /><path
         style="fill:#00003c;fill-opacity:1;stroke:none;stroke-width:0.2;stroke-linecap:round;stroke-linejoin:miter;stroke-dasharray:none;stroke-opacity:1;paint-order:fill markers stroke"
         d="M 5.2509306,102.89981 C 5.0357824,95.070311 13.971606,88.81158 21.372208,95.668269 l -1.243641,0.368484 C 17.786122,93.240427 7.5940026,92.152391 5.573356,103.08406 Z"
         id="path3"
         sodipodi:nodetypes="ccccc" /><path
         style="fill:#00003c;fill-opacity:1;stroke:none;stroke-width:0.2;stroke-linecap:round;stroke-linejoin:miter;stroke-dasharray:none;stroke-opacity:1;paint-order:fill markers stroke"
         d="m 15.637639,100.32041 c 10.104771,-9.477887 25.063899,-1.697099 20.772022,11.7918 l 0.506669,0.50667 C 43.025177,96.447344 24.229875,87.180595 15.637639,100.32041 Z"
         id="path4"
         sodipodi:nodetypes="cccc" /><path
         style="fill:#00003c;fill-opacity:1;stroke:none;stroke-width:0.2;stroke-linecap:round;stroke-linejoin:miter;stroke-dasharray:none;stroke-opacity:1;paint-order:fill markers stroke"
         d="m 31.252249,110.33863 c 9.905289,-0.57195 13.579574,17.46686 -1.387652,18.6195 l 0.09212,-0.64485 c 13.361651,-2.23774 8.650091,-16.16033 1.295532,-17.97465 z"
         id="path5"
         sodipodi:nodetypes="cccc" /><path
         style="fill:#00003c;fill-opacity:1;stroke:none;stroke-width:0.2;stroke-linecap:round;stroke-linejoin:miter;stroke-dasharray:none;stroke-opacity:1;paint-order:fill markers stroke"
         d="m 23.352618,108.94631 c 12.000705,4.77135 7.487694,16.3176 -0.879387,18.46714 12.087759,-0.42404 13.214102,-17.00919 0.879387,-18.46714 z"
         id="path6"
         sodipodi:nodetypes="ccc" /><path
         style="fill:#00003c;fill-opacity:1;stroke:none;stroke-width:0.2;stroke-linecap:round;stroke-linejoin:miter;stroke-dasharray:none;stroke-opacity:1;paint-order:fill markers stroke"
         d="m 36.81409,126.40233 -0.817581,0.47213 c 1.027572,5.86585 -4.514014,7.38615 -8.1067,6.03395 4.787589,2.97953 10.059886,-0.34374 8.924281,-6.50608 z"
         id="path7"
         sodipodi:nodetypes="cccc" /><path
         style="fill:#00003c;fill-opacity:1;stroke:none;stroke-width:0.2;stroke-linecap:round;stroke-linejoin:miter;stroke-dasharray:none;stroke-opacity:1;paint-order:fill markers stroke"
         d="m 5.7485872,127.23431 c 2.570608,15.78641 24.3059268,13.98298 24.5414208,-1.27022 -3.895929,12.79941 -17.547307,15.44789 -24.5414208,1.27022 z"
         id="path8"
         sodipodi:nodetypes="ccc" /></g><path
       sodipodi:type="star"
       style="fill:none;stroke:#ff0066;stroke-width:16.8611;stroke-linecap:round;stroke-linejoin:round;stroke-dasharray:none;stroke-opacity:1;paint-order:fill markers stroke"
       id="path1"
       inkscape:flatsided="false"
       sodipodi:sides="3"
       sodipodi:cx="100.96526"
       sodipodi:cy="107.22953"
       sodipodi:r1="77.782051"
       sodipodi:r2="38.891026"
       sodipodi:arg1="-2.0943951"
       sodipodi:arg2="-1.0471976"
       inkscape:rounded="0"
       inkscape:randomized="0"
       d="m 81.808144,51.261674 38.602626,22.287239 39.10752,22.578736 a 12.819349,12.819349 90 0 1 0,22.203761 l -39.10751,22.57874 -40.391439,23.32 A 11.963403,11.963403 30 0 1 62.074238,153.86954 l 0,-46.64001 0,-44.57448 A 13.155937,13.155937 150 0 1 81.808144,51.261674 Z"
       inkscape:transform-center-x="-21.912205"
       transform="matrix(1.1268511,0,0,1.1268511,-18.816285,-2.5743177)"
       inkscape:transform-center-y="8.5980966e-06"
       inkscape:path-effect="#path-effect1-1-2-9" /></g></svg>
